<?xml version="1.0" encoding="UTF-8"?>
<svg width="115px" height="115px" viewBox="0 0 115 115" version="1.1" xmlns="http://www.w3.org/2000/svg" xmlns:xlink="http://www.w3.org/1999/xlink">
    <!-- Generator: Sketch 47.1 (45422) - http://www.bohemiancoding.com/sketch -->
    <title>mic_big</title>
    <desc>Created with Sketch.</desc>
    <defs></defs>
    <g id="assets" stroke="none" stroke-width="1" fill="none" fill-rule="evenodd">
        <g id="mic" transform="translate(1.000000, 1.000000)" stroke="#E05206">
            <circle id="Oval" fill="#F7F9F9" cx="56.5" cy="56.5" r="56.5"></circle>
            <circle id="Oval" fill="#F7F9F9" cx="56.5" cy="56.5" r="48.5"></circle>
            <circle id="Oval" fill="#F7F9F9" cx="56" cy="57" r="42"></circle>
            <circle id="Oval" fill="#F7F9F9" cx="56" cy="57" r="36"></circle>
            <path d="M68,61 L68,63 C68,69.627 62.627,75 56,75 L56,75 C49.373,75 44,69.627 44,63 L44,61" id="Shape" stroke-width="2" stroke-linecap="square"></path>
            <path d="M40,61 L72,61" id="Shape" stroke-width="2" stroke-linecap="square"></path>
            <path d="M56,79 L56,75" id="Shape" stroke-width="2" stroke-linecap="square"></path>
            <path d="M44,55 L44,47 C44,40.373 49.373,35 56,35 L56,35 C62.627,35 68,40.373 68,47 L68,55" id="Shape" stroke-width="2" stroke-linecap="square"></path>
        </g>
    </g>
</svg>