<?xml version="1.0" encoding="UTF-8"?>
<svg width="46px" height="46px" viewBox="0 0 46 46" version="1.1" xmlns="http://www.w3.org/2000/svg" xmlns:xlink="http://www.w3.org/1999/xlink">
    <!-- Generator: Sketch 47.1 (45422) - http://www.bohemiancoding.com/sketch -->
    <title>Pause</title>
    <desc>Created with Sketch.</desc>
    <defs></defs>
    <g id="assets" stroke="none" stroke-width="1" fill="none" fill-rule="evenodd">
        <g id="Pause" transform="translate(1.000000, 1.000000)">
            <path d="M0,22 C0,34.1511837 9.87357405,44 22.0512821,44 C34.2289901,44 44.1025641,34.1511837 44.1025641,22 C44.1025641,9.84881633 34.2289901,0 22.0512821,0 C9.87357405,0 0,9.84881633 0,22 Z" id="Shape-copy-3" stroke="#E8E9E8" stroke-width="1" fill="#FFFFFF"></path>
            <path d="M16.1115514,14.3 L19.1701062,14.3 C19.5429842,14.3 19.8457615,14.5725008 19.8461538,14.9095915 L19.8461538,29.0900533 C19.8461538,29.4268206 19.5429758,29.7 19.1701062,29.7 L16.1115514,29.7 C15.7386818,29.7 15.4358974,29.4268206 15.4358974,29.0900533 L15.4358974,14.9095915 C15.4358974,14.5728242 15.7386817,14.3 16.1115514,14.3 Z M27.990619,14.3 C28.3638816,14.3 28.6666828,14.5725008 28.6666667,14.9095915 L28.6666667,29.0900533 C28.6666667,29.4268206 28.3638824,29.7 27.990619,29.7 L24.9324579,29.7 C24.5591946,29.7 24.2564103,29.4268206 24.2564103,29.0900533 L24.2564103,14.9095915 C24.2564103,14.5728242 24.5591946,14.3 24.9324579,14.3 L27.990619,14.3 Z" id="Shape" fill="#E05206"></path>
        </g>
    </g>
</svg>