<?xml version="1.0" encoding="UTF-8"?>
<svg width="46px" height="46px" viewBox="0 0 46 46" version="1.1" xmlns="http://www.w3.org/2000/svg" xmlns:xlink="http://www.w3.org/1999/xlink">
    <!-- Generator: Sketch 47.1 (45422) - http://www.bohemiancoding.com/sketch -->
    <title>Reload</title>
    <desc>Created with Sketch.</desc>
    <defs></defs>
    <g id="assets" stroke="none" stroke-width="1" fill="none" fill-rule="evenodd">
        <g id="Reload" transform="translate(1.000000, 1.000000)">
            <g id="Shape-copy-3-+-Shape" stroke-width="1" stroke="#E8E9E8" fill="#FFFFFF">
                <path d="M0,22 C0,34.1511837 9.87357405,44 22.0512821,44 C34.2289901,44 44.1025641,34.1511837 44.1025641,22 C44.1025641,9.84881633 34.2289901,0 22.0512821,0 C9.87357405,0 0,9.84881633 0,22 Z" id="Shape-copy-3"></path>
            </g>
            <path d="M33.646942,24.620598 C33.7546912,24.761844 33.7702797,24.9487029 33.6866343,25.104372 C33.6034695,25.2600643 33.4361948,25.3579926 33.2528541,25.3579926 L31.0882059,25.3579926 C30.532986,26.6445978 29.6602279,27.7949157 28.5138762,28.7177875 C26.8387663,30.0662182 24.7629528,30.787367 22.597832,30.787367 C22.3332167,30.787367 22.0676562,30.7769875 21.8011507,30.7553259 C19.4200848,30.5612747 17.2412606,29.5102387 15.6658539,27.795367 C15.2523924,27.3454387 15.299645,26.6603925 15.770755,26.2655208 C16.241865,25.870649 16.9596342,25.9157772 17.3726232,26.3652541 C18.5591398,27.6568233 20.2002277,28.4488233 21.9944145,28.5945875 C23.8391619,28.7444131 25.6342937,28.1992644 27.0499861,27.0597772 C27.6581289,26.5705875 28.1575905,25.9924952 28.5502608,25.3579926 L26.7485135,25.3579926 C26.5656454,25.3579926 26.3978982,25.2605157 26.3147333,25.1043721 C26.2315685,24.9491311 26.2471619,24.7618491 26.3548982,24.6201465 L29.6077772,20.3447003 C29.698975,20.224208 29.844986,20.1529055 30.0009201,20.1529055 C30.1568541,20.1529055 30.3033376,20.224208 30.395008,20.3447003 L33.646942,24.620598 Z M15.5661617,23.6530298 C15.4744912,23.7735627 15.3284703,23.8448468 15.1725458,23.8443737 C15.0170843,23.8443737 14.8706008,23.7730711 14.7789304,23.6525788 L11.5265239,19.3762302 C11.4187876,19.2349789 11.4031942,19.0476969 11.4863591,18.8924558 C11.5695239,18.7367635 11.7372711,18.6388353 11.9201393,18.6388353 L14.0758095,18.6388353 C15.5812824,15.1323736 19.2986559,12.9093582 23.3633373,13.2410505 C25.7637768,13.4369069 27.9558319,14.5019325 29.5340736,16.2398197 C29.9451725,16.6920044 29.8941395,17.3770505 29.420667,17.7696659 C28.9471945,18.1613787 28.2298978,18.1130916 27.8192714,17.660907 C26.6299197,16.352189 24.9793812,15.5498094 23.170546,15.4026915 C20.4431177,15.1829171 17.9254912,16.4862197 16.605722,18.6392863 L18.4254253,18.6392863 C18.6082935,18.6392863 18.7755682,18.7367633 18.858733,18.8929068 C18.9418978,19.0476966 18.9263044,19.2354299 18.8190407,19.3766812 L15.5661617,23.6530298 Z" id="Shape" fill="#E05206"></path>
        </g>
    </g>
</svg>